<?xml version="1.0" standalone="no"?>
<!DOCTYPE svg PUBLIC "-//W3C//DTD SVG 20010904//EN"
 "http://www.w3.org/TR/2001/REC-SVG-20010904/DTD/svg10.dtd">
<svg version="1.0" xmlns="http://www.w3.org/2000/svg"
 width="620.000000pt" height="620.000000pt" viewBox="0 0 620.000000 620.000000"
 preserveAspectRatio="xMidYMid meet">

<g transform="translate(0.000000,620.000000) scale(0.100000,-0.100000)"
fill="#000000" stroke="none">
<path d="M0 3100 l0 -3100 3100 0 3100 0 0 3100 0 3100 -3100 0 -3100 0 0
-3100z m3708 2127 l262 -263 0 -217 0 -217 540 0 540 0 -2 -462 -3 -463 -132
-3 -133 -3 0 -697 0 -698 -258 -257 -259 -257 -754 0 -754 0 -257 258 -258
257 -2 220 -3 220 -285 2 -285 2 -257 263 -258 263 0 895 0 894 262 263 262
263 886 0 886 0 262 -263z m-1833 -3761 c71 -18 109 -40 155 -88 66 -69 84
-130 84 -283 1 -149 -16 -209 -79 -283 -72 -84 -176 -112 -412 -112 l-143 0 0
390 0 390 173 0 c111 0 190 -5 222 -14z m716 -221 c58 -41 98 -108 111 -187
18 -104 31 -98 -218 -98 l-217 0 7 -42 c4 -24 18 -62 31 -85 43 -72 147 -103
229 -69 35 14 79 65 91 104 5 17 14 22 42 22 34 0 35 -1 29 -31 -14 -71 -75
-135 -149 -159 -22 -7 -71 -10 -111 -8 -104 5 -159 40 -205 130 -30 59 -34 76
-35 150 0 102 22 175 73 231 55 61 100 78 198 75 72 -3 86 -6 124 -33z m572
21 c48 -19 84 -68 96 -129 7 -30 10 -132 9 -242 l-3 -190 -35 0 -35 0 -5 217
c-5 200 -7 219 -26 245 -29 38 -60 53 -117 53 -56 0 -95 -18 -130 -60 -40 -47
-47 -90 -47 -282 l0 -178 -35 0 -35 0 0 285 0 285 35 0 c35 0 35 0 35 -45 l0
-46 32 37 c18 20 46 43 63 50 40 17 157 18 198 0z m1043 -10 c80 -37 130 -126
136 -242 l3 -49 -221 -3 -221 -2 8 -48 c18 -95 92 -162 179 -162 72 1 125 30
157 89 25 45 32 51 62 51 31 0 33 -2 27 -27 -25 -103 -119 -173 -233 -173
-122 0 -191 39 -238 134 -52 107 -41 273 25 365 63 87 207 118 316 67z m514
-16 c0 -39 -1 -40 -37 -40 -48 0 -115 -40 -145 -87 -21 -35 -23 -51 -28 -223
l-5 -185 -35 0 -35 0 0 280 0 280 33 3 32 3 0 -62 0 -62 30 41 c30 42 72 70
125 83 60 14 65 12 65 -31z m-1255 -187 c43 -120 84 -231 90 -246 11 -26 18
-11 100 218 l89 245 38 0 c21 0 38 -1 38 -2 0 -2 -49 -129 -108 -283 l-108
-280 -38 0 -39 0 -104 260 c-57 143 -106 270 -109 283 -6 20 -3 22 33 22 l39
0 79 -217z"/>
<path d="M1447 5191 l-237 -239 0 -882 0 -882 237 -244 238 -244 302 0 303 0
0 -238 0 -237 243 -243 242 -242 731 0 730 0 247 247 247 246 0 709 0 708 130
0 130 0 0 415 0 415 -540 0 -540 0 0 236 0 237 -237 238 -237 239 -876 0 -876
0 -237 -239z m2132 -98 l201 -207 0 -273 0 -273 -275 0 -275 0 0 205 0 205
-670 0 -670 0 0 -680 0 -680 265 0 265 0 0 200 0 200 -135 0 -135 0 0 275 0
275 410 0 410 0 0 -475 0 -475 130 0 130 0 0 200 0 200 275 0 275 0 0 -273 0
-272 -208 -208 -208 -208 -197 3 -197 3 0 -202 0 -203 535 0 535 0 0 955 0
955 410 0 410 0 0 -275 0 -275 -130 0 -130 0 0 -747 0 -747 -207 -208 -207
-208 -681 0 -680 0 -202 202 -203 203 0 275 0 275 -332 -3 -332 -3 -208 208
-208 208 0 820 0 820 201 208 202 207 817 0 818 0 201 -207z"/>
<path d="M1560 1096 l0 -326 113 0 c229 0 324 55 358 205 15 69 7 238 -15 287
-48 110 -125 147 -323 155 l-133 6 0 -327z"/>
<path d="M2385 1208 c-56 -30 -96 -85 -110 -145 l-7 -33 181 0 181 0 0 25 c0
50 -50 124 -102 151 -32 17 -115 18 -143 2z"/>
<path d="M4010 1201 c-44 -23 -89 -85 -97 -134 l-6 -37 183 0 182 0 -6 38 c-9
49 -53 111 -96 133 -19 11 -55 19 -80 19 -25 0 -61 -8 -80 -19z"/>
</g>
</svg>
