<?xml version="1.0" standalone="no"?>
<!DOCTYPE svg PUBLIC "-//W3C//DTD SVG 20010904//EN"
 "http://www.w3.org/TR/2001/REC-SVG-20010904/DTD/svg10.dtd">
<svg version="1.0" xmlns="http://www.w3.org/2000/svg"
 width="1128.000000pt" height="248.000000pt" viewBox="0 0 1128.000000 248.000000"
 preserveAspectRatio="xMidYMid meet">

<g transform="translate(0.000000,248.000000) scale(0.100000,-0.100000)"
fill="#000000" stroke="none">
<path d="M4938 1444 c-58 -31 -75 -116 -35 -175 44 -66 155 -71 210 -9 22 25
27 40 27 81 0 45 -4 55 -34 85 -30 30 -40 34 -87 34 -30 -1 -66 -7 -81 -16z"/>
<path d="M3260 1350 l0 -80 60 0 60 0 0 -415 0 -415 -55 0 -55 0 0 -80 0 -80
165 0 165 0 0 57 0 56 38 -41 c54 -58 120 -86 207 -86 97 -1 162 24 231 86
100 92 139 202 132 372 -6 132 -29 202 -92 279 -60 73 -133 109 -235 115 -105
6 -167 -15 -232 -77 l-49 -47 0 218 0 218 -170 0 -170 0 0 -80z m607 -410 c50
-22 97 -89 109 -153 27 -148 -18 -286 -108 -333 -43 -22 -129 -18 -169 9 -74
50 -103 128 -97 257 6 121 44 188 128 224 47 20 87 19 137 -4z"/>
<path d="M4250 1350 l0 -80 60 0 60 0 0 -415 0 -415 -60 0 -60 0 0 -80 0 -80
235 0 235 0 0 80 0 80 -65 0 -65 0 0 495 0 495 -170 0 -170 0 0 -80z"/>
<path d="M6400 1350 l0 -80 65 0 65 0 -2 -412 -3 -413 -62 -3 -63 -3 0 -79 0
-80 225 0 225 0 0 80 0 80 -50 0 -50 0 0 178 0 178 29 46 c38 60 83 90 141 96
58 5 103 -16 127 -61 15 -27 18 -61 18 -232 l0 -200 -52 -3 -53 -3 0 -80 0
-79 225 0 225 0 0 80 0 80 -59 0 -59 0 -4 238 c-4 189 -8 246 -21 280 -24 64
-53 99 -105 129 -42 25 -56 28 -142 28 -87 0 -100 -3 -149 -30 -29 -16 -68
-47 -87 -69 l-34 -40 0 227 0 227 -175 0 -175 0 0 -80z"/>
<path d="M9220 1350 l0 -80 60 0 60 0 0 -415 0 -415 -60 0 -60 0 0 -80 0 -80
230 0 230 0 0 80 0 80 -60 0 -60 0 0 495 0 495 -170 0 -170 0 0 -80z"/>
<path d="M10290 1350 l0 -80 60 0 60 0 0 -415 0 -415 -60 0 -60 0 0 -80 0 -80
225 0 225 0 0 80 0 80 -55 0 -55 0 0 173 0 172 30 52 c54 94 157 130 231 80
51 -34 58 -67 58 -284 l1 -193 -55 0 -55 0 0 -80 0 -80 220 0 220 0 0 80 0 80
-55 0 -55 0 0 222 c0 250 -10 309 -63 373 -97 118 -308 114 -427 -7 l-50 -51
0 227 0 226 -170 0 -170 0 0 -80z"/>
<path d="M9875 1313 c-22 -2 -55 -6 -72 -9 l-33 -5 0 -94 0 -94 -57 -3 -58 -3
-3 -77 -3 -78 59 0 60 0 4 -252 c4 -168 10 -265 18 -288 31 -84 91 -131 191
-145 47 -7 166 7 212 24 24 9 24 10 13 82 l-11 72 -72 -2 c-66 -2 -75 0 -98
23 l-25 25 0 231 0 230 105 0 105 0 0 80 0 80 -105 0 -105 0 0 105 0 105 -42
-2 c-24 -1 -61 -3 -83 -5z"/>
<path d="M1719 1106 c-54 -19 -106 -54 -134 -89 l-25 -32 0 63 0 62 -170 0
-170 0 0 -80 0 -80 60 0 60 0 0 -400 0 -400 -60 0 -60 0 0 -75 0 -75 230 0
230 0 0 75 0 75 -60 0 -60 0 0 121 0 122 50 -47 c80 -75 156 -97 264 -76 161
30 261 145 296 341 21 113 -7 267 -65 358 -34 54 -100 108 -162 131 -62 23
-168 26 -224 6z m107 -165 c80 -36 119 -116 119 -241 0 -98 -15 -148 -58 -196
-41 -48 -77 -64 -140 -64 -105 0 -174 84 -184 225 -10 133 35 237 120 276 53
24 91 24 143 0z"/>
<path d="M5541 1106 c-67 -22 -145 -81 -186 -140 -99 -144 -102 -386 -7 -536
107 -168 361 -217 577 -111 45 22 89 49 99 60 18 19 17 22 -19 81 -20 34 -40
60 -44 58 -3 -2 -42 -21 -85 -43 -70 -35 -87 -39 -150 -39 -78 0 -114 14 -157
61 -47 50 -62 92 -67 184 -9 180 64 279 206 279 45 0 67 -6 93 -23 40 -26 79
-98 79 -144 l0 -33 75 0 75 0 0 175 0 175 -75 0 -75 0 0 -42 0 -42 -27 26
c-50 47 -92 61 -183 65 -55 2 -101 -2 -129 -11z"/>
<path d="M7727 1110 c-108 -27 -201 -104 -248 -203 -85 -184 -52 -415 77 -537
107 -101 261 -132 444 -88 59 14 162 62 183 86 17 19 16 22 -19 81 -20 33 -39
61 -42 61 -3 0 -24 -11 -46 -24 -86 -50 -197 -68 -279 -45 -74 20 -137 98
-137 169 l0 30 280 0 280 0 0 65 c0 182 -77 322 -210 384 -45 20 -73 26 -150
28 -52 1 -112 -2 -133 -7z m169 -145 c54 -11 114 -95 114 -160 l0 -25 -180 0
-180 0 6 28 c12 52 46 112 76 134 31 22 90 38 118 32 8 -1 29 -5 46 -9z"/>
<path d="M8492 1100 c-40 -10 -92 -28 -116 -39 l-45 -19 31 -74 c17 -40 32
-75 34 -77 2 -3 21 5 42 17 86 48 237 67 307 38 41 -17 65 -52 72 -105 l5 -39
-78 -6 c-188 -15 -291 -43 -357 -97 -133 -109 -105 -335 51 -407 114 -53 257
-29 345 56 l37 36 0 -52 0 -52 165 0 165 0 0 80 0 80 -54 0 -54 0 -5 228 c-3
152 -9 240 -18 267 -19 56 -102 137 -164 159 -78 28 -269 32 -363 6z m328
-507 c0 -76 0 -76 -40 -114 -100 -95 -250 -63 -250 53 0 24 7 54 16 66 30 44
107 69 217 71 l57 1 0 -77z"/>
<path d="M2210 1030 l0 -80 55 0 55 0 0 -210 c0 -277 16 -350 94 -417 46 -41
97 -57 181 -57 90 0 154 28 218 96 l47 50 0 -66 0 -66 170 0 170 0 0 80 0 80
-60 0 -60 0 -2 333 -3 332 -162 3 -163 2 0 -79 0 -80 53 -3 52 -3 3 -160 c3
-180 -5 -218 -61 -275 -61 -62 -139 -77 -198 -37 -52 35 -57 68 -58 370 l-1
267 -165 0 -165 0 0 -80z"/>
<path d="M4780 1030 l0 -80 60 0 60 0 0 -255 0 -255 -60 0 -60 0 0 -80 0 -80
235 0 235 0 0 80 0 80 -65 0 -65 0 0 335 0 335 -170 0 -170 0 0 -80z"/>
</g>
</svg>
