<?xml version="1.0" standalone="no"?>
<!DOCTYPE svg PUBLIC "-//W3C//DTD SVG 20010904//EN"
 "http://www.w3.org/TR/2001/REC-SVG-20010904/DTD/svg10.dtd">
<svg version="1.0" xmlns="http://www.w3.org/2000/svg"
 width="900.000000pt" height="900.000000pt" viewBox="0 0 900.000000 900.000000"
 preserveAspectRatio="xMidYMid meet">

<g transform="translate(0.000000,900.000000) scale(0.100000,-0.100000)"
fill="#000000" stroke="none">
<path d="M4080 8984 c-330 -31 -712 -114 -1030 -222 -464 -159 -971 -437
-1340 -736 -848 -686 -1398 -1586 -1611 -2636 -54 -264 -77 -476 -86 -775 -27
-975 268 -1941 836 -2734 256 -358 614 -723 966 -988 556 -417 1209 -703 1890
-827 299 -55 381 -61 810 -61 326 0 427 3 544 18 1325 166 2492 889 3224 2000
347 525 568 1091 684 1752 l28 160 0 565 0 565 -33 185 c-118 661 -350 1238
-713 1775 -271 401 -632 780 -1024 1076 -590 446 -1295 741 -2037 854 -299 46
-794 59 -1108 29z m785 -304 c992 -84 1881 -489 2588 -1179 706 -689 1146
-1616 1237 -2606 14 -156 14 -585 0 -750 -133 -1550 -1157 -2925 -2610 -3503
-761 -303 -1607 -375 -2414 -206 -624 130 -1225 414 -1732 818 -132 105 -352
303 -413 372 -19 22 -69 77 -111 124 -513 569 -873 1325 -995 2085 -45 283
-50 349 -50 685 0 339 5 408 51 690 264 1615 1479 2940 3071 3351 237 61 498
104 743 122 107 8 525 6 635 -3z"/>
<path d="M5700 4529 c-35 -13 -60 -58 -60 -108 0 -31 7 -49 29 -73 27 -31 34
-33 91 -33 57 0 64 2 91 33 33 37 39 94 14 141 -23 45 -101 64 -165 40z"/>
<path d="M4080 4435 l0 -75 55 0 55 0 0 -389 0 -390 -52 -3 -53 -3 0 -70 0
-70 155 0 155 0 3 50 3 51 44 -43 c75 -71 171 -89 288 -53 114 35 199 134 227
261 18 81 8 230 -19 300 -46 119 -149 198 -272 207 -94 6 -167 -17 -224 -72
l-45 -43 0 209 0 208 -160 0 -160 0 0 -75z m594 -408 c56 -43 81 -107 81 -207
0 -75 -4 -91 -30 -140 -33 -60 -92 -100 -149 -100 -50 0 -114 38 -141 83 -58
101 -46 271 25 346 55 57 151 65 214 18z"/>
<path d="M5050 4435 l0 -74 58 -3 57 -3 0 -385 0 -385 -57 -3 -58 -3 0 -74 0
-75 220 0 220 0 0 75 0 75 -60 0 -60 0 0 465 0 465 -160 0 -160 0 0 -75z"/>
<path d="M2607 4196 c-45 -17 -117 -65 -124 -83 -11 -29 -23 -10 -23 37 l0 50
-160 0 -161 0 3 -72 3 -73 55 -5 55 -5 3 -367 2 -367 -57 -3 -58 -3 -3 -72 -3
-73 221 0 221 0 -3 73 -3 72 -57 3 -58 3 0 114 c0 63 2 115 5 115 3 0 20 -16
37 -36 88 -100 250 -110 380 -24 152 101 202 342 113 546 -50 114 -139 173
-270 180 -54 3 -92 0 -118 -10z m109 -157 c88 -42 131 -183 94 -313 -18 -65
-81 -132 -132 -141 -116 -22 -202 58 -215 200 -18 194 111 323 253 254z"/>
<path d="M6295 4197 c-49 -16 -89 -41 -134 -81 -84 -77 -115 -169 -109 -325 3
-96 6 -113 36 -173 18 -36 49 -81 69 -99 96 -83 249 -117 387 -85 72 17 173
65 201 96 15 17 14 22 -20 74 -19 31 -38 56 -41 56 -3 0 -17 -9 -31 -20 -72
-56 -211 -77 -281 -41 -101 52 -146 183 -108 313 29 100 90 151 182 151 90 0
163 -69 164 -155 0 -28 0 -28 70 -28 l70 0 0 160 0 161 -67 -3 -68 -3 -5 -34
c-5 -31 -6 -33 -19 -17 -8 10 -33 27 -55 38 -51 27 -181 34 -241 15z"/>
<path d="M3112 4128 l3 -73 53 -3 52 -3 0 -208 c0 -227 8 -275 55 -337 55 -72
172 -101 279 -70 44 13 70 29 108 67 27 27 51 49 53 49 3 0 5 -27 5 -60 l0
-60 155 0 155 0 0 75 0 75 -55 0 -55 0 0 310 0 310 -155 0 -155 0 0 -75 0 -75
50 0 49 0 3 -127 c2 -71 0 -150 -4 -176 -13 -87 -85 -150 -169 -149 -49 1 -75
15 -96 55 -16 28 -18 67 -21 290 l-3 257 -155 0 -155 0 3 -72z"/>
<path d="M5542 4128 l3 -73 55 -5 55 -5 0 -230 0 -230 -58 -3 -58 -3 3 -72 3
-72 218 -3 217 -2 0 74 0 75 -57 3 -58 3 -3 308 -2 307 -161 0 -160 0 3 -72z"/>
<path d="M2157 3032 c-14 -3 -17 -15 -17 -72 0 -77 3 -80 76 -80 l44 0 0 -384
c0 -430 7 -396 -76 -396 l-45 0 3 -72 3 -73 205 0 205 0 3 72 3 72 -48 3 -48
3 -3 149 c-2 144 -2 152 24 203 34 71 81 103 150 103 63 0 99 -25 114 -78 7
-22 10 -106 8 -207 l-3 -170 -48 -3 -48 -3 3 -72 3 -72 205 0 205 0 0 75 0 75
-52 -2 -53 -2 0 201 c0 246 -11 300 -76 364 -48 49 -92 64 -184 64 -81 0 -150
-30 -202 -88 -21 -23 -40 -42 -43 -42 -3 0 -5 98 -5 218 l0 217 -143 0 c-78 0
-150 -1 -160 -3z"/>
<path d="M4813 3024 c-2 -6 -3 -40 -1 -75 l3 -64 43 -2 c78 -3 72 29 72 -385
0 -205 -4 -378 -8 -385 -5 -7 -27 -11 -57 -10 l-50 2 0 -75 0 -75 195 -3 c107
-2 205 0 217 3 21 5 23 11 23 75 l0 70 -45 1 c-25 1 -51 2 -57 3 -10 1 -14
104 -18 464 l-5 464 -154 1 c-104 2 -155 -1 -158 -9z"/>
<path d="M5860 2960 l0 -75 53 0 52 0 0 -390 0 -390 -40 -2 c-22 -1 -46 -2
-52 -2 -9 -1 -13 -23 -13 -76 l0 -76 205 1 206 1 -3 77 -3 76 -40 -1 c-22 0
-43 4 -47 11 -4 6 -8 72 -8 146 0 121 3 140 24 185 36 77 74 107 141 113 64 5
95 -10 122 -61 15 -27 17 -61 18 -212 0 -174 -1 -180 -20 -178 -11 2 -32 0
-47 -3 -28 -5 -28 -7 -28 -80 l0 -75 203 3 202 3 3 73 3 72 -28 1 c-15 1 -39
2 -53 3 l-25 1 -5 230 c-5 211 -7 233 -27 271 -49 92 -126 130 -249 122 -82
-5 -141 -34 -192 -92 -16 -19 -33 -32 -36 -29 -3 4 -6 101 -6 217 l0 211 -155
0 -155 0 0 -75z"/>
<path d="M5435 2911 l-60 -6 -3 -92 -3 -93 -54 0 -55 0 0 -75 0 -75 55 0 55 0
0 -217 c0 -120 5 -234 10 -254 28 -101 99 -149 222 -149 42 0 100 5 128 11 55
12 56 13 44 102 l-7 46 -69 -2 c-65 -2 -71 0 -94 26 -24 28 -24 31 -24 233 l0
204 100 0 100 0 0 75 0 75 -100 0 -100 0 0 100 0 100 -42 -2 c-24 -1 -70 -4
-103 -7z"/>
<path d="M3379 2715 c-112 -36 -205 -132 -235 -241 -25 -94 -16 -250 18 -326
33 -71 94 -133 167 -167 47 -22 73 -27 163 -29 125 -4 195 8 277 49 87 43 88
46 46 118 l-36 61 -30 -21 c-47 -33 -133 -59 -199 -59 -120 0 -202 62 -212
160 l-3 35 265 2 265 2 0 78 c-1 146 -68 264 -183 320 -49 24 -71 28 -157 30
-67 2 -115 -2 -146 -12z m221 -143 c39 -29 70 -82 70 -119 l0 -33 -167 2 -168
3 4 25 c4 32 35 93 55 109 51 42 157 49 206 13z"/>
<path d="M4185 2724 c-83 -19 -185 -58 -185 -71 0 -15 39 -113 50 -126 4 -4
33 5 66 20 47 22 77 28 149 31 112 4 152 -13 174 -75 23 -63 13 -73 -68 -73
-164 0 -312 -52 -366 -129 -28 -40 -30 -49 -30 -130 0 -79 3 -91 28 -130 77
-115 311 -126 413 -19 l29 30 5 -49 5 -48 120 -3 c66 -2 135 0 153 3 l33 6 -3
72 -3 72 -50 0 -50 0 -5 220 c-5 201 -7 223 -27 260 -29 54 -68 89 -128 117
-42 19 -70 23 -170 24 -66 2 -129 1 -140 -2z m265 -475 c0 -69 -1 -73 -35
-105 -95 -89 -235 -60 -235 49 0 80 72 119 233 126 l37 1 0 -71z"/>
</g>
</svg>
