<?xml version="1.0" standalone="no"?>
<!DOCTYPE svg PUBLIC "-//W3C//DTD SVG 20010904//EN"
 "http://www.w3.org/TR/2001/REC-SVG-20010904/DTD/svg10.dtd">
<svg version="1.0" xmlns="http://www.w3.org/2000/svg"
 width="2300.000000pt" height="300.000000pt" viewBox="0 0 2300.000000 300.000000"
 preserveAspectRatio="xMidYMid meet">

<g transform="translate(0.000000,300.000000) scale(0.100000,-0.100000)"
fill="#000000" stroke="none">
<path d="M12010 1500 c0 -1493 0 -1500 20 -1500 20 0 20 7 20 1500 0 1493 0
1500 -20 1500 -20 0 -20 -7 -20 -1500z"/>
<path d="M14905 2541 c-56 -24 -78 -99 -40 -141 11 -12 52 -37 92 -55 70 -32
73 -35 73 -67 0 -45 -15 -58 -67 -58 -50 0 -83 26 -83 65 0 18 -5 25 -20 25
-18 0 -20 -7 -20 -60 0 -53 2 -60 20 -60 11 0 20 5 20 10 0 6 14 3 32 -6 63
-33 149 2 163 67 11 50 -13 80 -100 124 -69 34 -80 44 -83 68 -5 39 14 57 59
57 44 0 79 -27 79 -60 0 -13 7 -20 20 -20 18 0 20 7 20 55 0 48 -2 55 -20 55
-11 0 -20 -4 -20 -9 0 -6 -16 -3 -35 5 -38 16 -60 17 -90 5z"/>
<path d="M16245 2535 c-145 -52 -143 -298 3 -346 115 -38 221 46 222 175 0
130 -110 213 -225 171z m133 -53 c62 -58 65 -166 7 -227 -28 -30 -39 -35 -77
-35 -75 0 -128 60 -128 145 0 84 53 145 125 145 33 0 50 -6 73 -28z"/>
<path d="M17054 2531 c-60 -27 -87 -72 -92 -147 -5 -78 10 -125 53 -163 61
-53 150 -53 208 -1 24 21 29 32 21 40 -8 8 -21 5 -49 -14 -70 -48 -149 -26
-181 50 -41 99 15 214 105 214 45 0 74 -19 91 -60 21 -52 40 -38 40 30 0 47
-3 60 -15 60 -8 0 -15 -7 -15 -15 0 -19 -5 -19 -33 -1 -39 25 -88 28 -133 7z"/>
<path d="M17439 2540 c-73 -22 -119 -89 -119 -176 0 -111 80 -190 183 -181
113 10 178 122 142 244 -27 90 -117 140 -206 113z m116 -52 c52 -41 72 -137
40 -198 -38 -74 -131 -95 -185 -42 -50 51 -60 133 -24 204 29 57 118 76 169
36z"/>
<path d="M18137 2535 c-55 -19 -85 -51 -102 -109 -36 -121 30 -233 142 -243
102 -9 183 70 183 179 0 85 -45 152 -119 177 -43 14 -57 13 -104 -4z m113 -40
c80 -42 85 -205 8 -259 -27 -19 -87 -21 -123 -4 -36 16 -65 77 -65 133 0 111
91 176 180 130z"/>
<path d="M19670 2539 c-143 -42 -161 -278 -26 -340 111 -51 222 12 242 137 21
131 -93 238 -216 203z m114 -50 c37 -29 56 -71 56 -124 0 -92 -47 -145 -127
-145 -73 0 -113 52 -113 145 0 31 7 69 15 85 30 58 118 79 169 39z"/>
<path d="M12760 2525 c0 -8 9 -15 19 -15 17 0 19 -10 23 -127 2 -90 8 -135 18
-151 32 -48 122 -67 180 -37 50 26 60 60 60 195 l0 120 25 0 c16 0 25 6 25 15
0 12 -14 15 -65 15 -51 0 -65 -3 -65 -15 0 -8 9 -15 20 -15 19 0 20 -7 20
-124 0 -123 0 -125 -26 -145 -15 -12 -41 -21 -59 -21 -18 0 -44 9 -59 21 -26
20 -26 22 -26 145 0 117 1 124 20 124 11 0 20 7 20 15 0 12 -14 15 -65 15 -51
0 -65 -3 -65 -15z"/>
<path d="M13160 2525 c0 -9 9 -15 25 -15 l25 0 0 -145 0 -145 -25 0 c-16 0
-25 -6 -25 -15 0 -12 14 -15 65 -15 51 0 65 3 65 15 0 9 -9 15 -25 15 l-25 0
0 133 1 132 54 -85 c31 -47 72 -113 93 -147 28 -47 43 -63 60 -63 22 0 22 1
22 160 0 153 1 160 20 160 11 0 20 7 20 15 0 12 -13 15 -60 15 -47 0 -60 -3
-60 -15 0 -8 9 -15 20 -15 19 0 20 -7 20 -122 l0 -123 -48 75 c-26 41 -65 103
-86 138 l-39 62 -48 0 c-37 0 -49 -4 -49 -15z"/>
<path d="M13570 2525 c0 -8 9 -15 20 -15 19 0 20 -7 20 -145 0 -138 -1 -145
-20 -145 -11 0 -20 -7 -20 -15 0 -12 14 -15 65 -15 51 0 65 3 65 15 0 8 -9 15
-20 15 -19 0 -20 7 -20 145 0 138 1 145 20 145 11 0 20 7 20 15 0 12 -14 15
-65 15 -51 0 -65 -3 -65 -15z"/>
<path d="M13750 2525 c0 -8 8 -15 18 -15 14 0 30 -33 74 -157 50 -143 58 -158
80 -161 23 -3 28 4 63 105 74 211 75 213 96 213 10 0 19 7 19 15 0 12 -13 15
-60 15 -47 0 -60 -3 -60 -15 0 -8 9 -15 21 -15 24 0 25 9 -33 -158 -22 -62
-42 -111 -44 -109 -3 2 -24 63 -49 136 l-44 131 25 0 c15 0 24 6 24 15 0 12
-14 15 -65 15 -51 0 -65 -3 -65 -15z"/>
<path d="M14140 2525 c0 -9 9 -15 25 -15 l25 0 0 -145 0 -145 -25 0 c-16 0
-25 -6 -25 -15 0 -13 22 -15 140 -15 l140 0 0 55 c0 42 -3 55 -15 55 -11 0
-15 -11 -15 -40 l0 -40 -80 0 -80 0 0 65 0 65 40 0 c33 0 40 -3 40 -20 0 -13
7 -20 20 -20 18 0 20 7 20 60 0 53 -2 60 -20 60 -13 0 -20 -7 -20 -20 0 -17
-7 -20 -40 -20 l-40 0 0 60 0 60 75 0 75 0 0 -30 c0 -20 5 -30 15 -30 11 0 15
12 15 45 l0 45 -135 0 c-113 0 -135 -2 -135 -15z"/>
<path d="M14480 2526 c0 -10 9 -16 25 -16 l25 0 0 -145 0 -145 -25 0 c-16 0
-25 -6 -25 -15 0 -12 14 -15 65 -15 51 0 65 3 65 15 0 8 -9 15 -20 15 -18 0
-20 7 -20 60 0 59 0 60 28 60 24 0 34 -10 71 -75 41 -73 43 -75 82 -75 28 0
39 4 39 15 0 9 -9 15 -23 15 -16 0 -31 14 -55 55 l-33 55 35 34 c30 28 36 40
36 74 0 29 -7 49 -24 69 -23 27 -28 28 -135 31 -96 3 -111 2 -111 -12z m210
-36 c11 -11 20 -33 20 -50 0 -46 -31 -70 -90 -70 l-50 0 0 70 0 70 50 0 c37 0
55 -5 70 -20z"/>
<path d="M15130 2525 c0 -9 9 -15 25 -15 l25 0 0 -145 0 -145 -25 0 c-16 0
-25 -6 -25 -15 0 -12 14 -15 70 -15 56 0 70 3 70 15 0 9 -9 15 -25 15 l-25 0
0 145 0 145 25 0 c16 0 25 6 25 15 0 12 -14 15 -70 15 -56 0 -70 -3 -70 -15z"/>
<path d="M15320 2495 c0 -33 4 -45 15 -45 10 0 15 10 15 30 0 29 2 30 45 30
l45 0 0 -145 0 -145 -25 0 c-16 0 -25 -6 -25 -15 0 -12 14 -15 70 -15 56 0 70
3 70 15 0 9 -9 15 -25 15 l-25 0 0 145 0 145 45 0 c43 0 45 -1 45 -30 0 -23 4
-30 20 -30 17 0 20 7 20 45 l0 45 -145 0 -145 0 0 -45z"/>
<path d="M15650 2525 c0 -8 8 -15 19 -15 13 0 34 -27 70 -89 45 -78 51 -95 51
-145 0 -53 -1 -56 -25 -56 -16 0 -25 -6 -25 -15 0 -12 14 -15 70 -15 56 0 70
3 70 15 0 9 -9 15 -25 15 -24 0 -25 3 -25 54 0 48 6 65 52 142 29 48 60 89 70
92 10 2 18 11 18 18 0 10 -16 14 -60 14 -47 0 -60 -3 -60 -15 0 -8 9 -15 20
-15 11 0 20 -3 20 -6 0 -9 -72 -135 -75 -132 -7 8 -75 127 -75 132 0 3 9 6 20
6 11 0 20 7 20 15 0 12 -14 15 -65 15 -51 0 -65 -3 -65 -15z"/>
<path d="M16520 2525 c0 -9 9 -15 25 -15 l25 0 0 -145 0 -145 -25 0 c-16 0
-25 -6 -25 -15 0 -12 14 -15 70 -15 56 0 70 3 70 15 0 9 -9 15 -25 15 -24 0
-25 2 -25 65 l0 65 40 0 c36 0 40 -2 40 -25 0 -16 6 -25 15 -25 12 0 15 14 15
65 0 51 -3 65 -15 65 -9 0 -15 -9 -15 -25 0 -22 -4 -25 -40 -25 l-40 0 0 65 0
65 70 0 70 0 0 -35 c0 -24 5 -35 15 -35 11 0 15 12 15 50 l0 50 -130 0 c-109
0 -130 -2 -130 -15z"/>
<path d="M17700 2525 c0 -9 9 -15 25 -15 l25 0 0 -145 0 -145 -25 0 c-16 0
-25 -6 -25 -15 0 -13 21 -15 130 -15 l130 0 0 60 c0 47 -3 60 -15 60 -11 0
-15 -12 -15 -45 l0 -45 -70 0 -70 0 0 145 0 145 25 0 c16 0 25 6 25 15 0 12
-14 15 -70 15 -56 0 -70 -3 -70 -15z"/>
<path d="M18410 2526 c0 -10 9 -16 25 -16 l25 0 0 -145 0 -145 -25 0 c-16 0
-25 -6 -25 -15 0 -12 14 -15 65 -15 51 0 65 3 65 15 0 8 -9 15 -20 15 -18 0
-20 7 -20 60 0 59 1 60 28 60 23 0 33 -11 70 -75 43 -73 45 -75 83 -75 28 0
39 4 39 15 0 9 -9 15 -22 15 -17 0 -33 16 -60 60 l-38 61 24 9 c58 22 75 107
32 157 -23 27 -28 28 -135 31 -96 3 -111 2 -111 -12z m207 -38 c29 -27 30 -71
3 -98 -15 -15 -33 -20 -70 -20 l-50 0 0 70 0 70 47 0 c34 0 53 -6 70 -22z"/>
<path d="M18850 2526 c0 -8 11 -16 23 -18 l24 -3 -52 -140 c-35 -94 -57 -141
-69 -143 -9 -2 -16 -10 -16 -18 0 -11 15 -14 60 -14 47 0 60 3 60 15 0 9 -9
15 -24 15 -24 0 -25 1 -12 38 l13 37 73 0 73 0 13 -37 c12 -35 12 -38 -7 -38
-10 0 -19 -7 -19 -15 0 -12 13 -15 60 -15 47 0 60 3 60 15 0 8 -8 15 -18 15
-14 0 -30 35 -76 160 l-59 160 -53 0 c-40 0 -54 -4 -54 -14z m109 -103 c13
-38 26 -74 29 -80 3 -10 -13 -13 -58 -13 -45 0 -61 3 -58 13 3 6 16 42 29 80
13 37 26 67 29 67 3 0 16 -30 29 -67z"/>
<path d="M19150 2525 c0 -9 9 -15 25 -15 l25 0 0 -145 0 -145 -25 0 c-16 0
-25 -6 -25 -15 0 -21 195 -21 244 -1 78 33 112 157 67 250 -33 67 -79 86 -209
86 -84 0 -102 -3 -102 -15z m228 -35 c79 -48 83 -189 7 -248 -21 -17 -41 -22
-86 -22 l-59 0 0 145 0 145 53 0 c35 0 63 -7 85 -20z"/>
<path d="M12886 1680 c-48 -15 -93 -67 -106 -122 -39 -162 85 -283 225 -219
49 22 72 48 58 62 -7 7 -22 2 -48 -15 -64 -44 -148 -28 -180 34 -19 37 -19
132 -1 169 33 64 111 80 165 35 17 -14 31 -34 31 -45 0 -12 7 -19 20 -19 18 0
20 7 20 60 0 53 -2 60 -20 60 -11 0 -20 -7 -20 -15 0 -14 -3 -14 -22 -1 -31
20 -87 27 -122 16z"/>
<path d="M13247 1676 c-56 -21 -86 -53 -103 -114 -39 -133 52 -254 181 -239
86 9 144 82 145 181 0 129 -110 214 -223 172z m113 -41 c77 -40 88 -178 20
-247 -23 -22 -37 -28 -73 -28 -76 0 -127 58 -127 145 0 111 91 176 180 130z"/>
<path d="M13955 1678 c-98 -34 -143 -160 -95 -265 45 -100 182 -123 261 -44
98 97 60 275 -66 310 -47 13 -60 13 -100 -1z m119 -49 c37 -29 56 -71 56 -124
0 -87 -51 -145 -127 -145 -36 0 -50 6 -73 28 -50 51 -60 133 -24 204 29 57
118 76 168 37z"/>
<path d="M15477 1676 c-49 -18 -64 -32 -89 -79 -27 -53 -23 -163 8 -204 49
-66 133 -90 205 -60 84 35 123 151 84 253 -30 79 -126 120 -208 90z m139 -61
c39 -41 51 -100 35 -162 -31 -116 -181 -127 -227 -17 -43 104 15 214 114 214
38 0 49 -5 78 -35z"/>
<path d="M15960 1683 c-50 -18 -76 -70 -60 -119 10 -29 23 -39 96 -74 82 -39
84 -41 84 -75 0 -40 -20 -55 -72 -55 -43 0 -66 17 -76 55 -5 17 -16 31 -25 33
-14 3 -17 -6 -17 -57 0 -54 2 -61 20 -61 11 0 20 4 20 9 0 5 14 3 31 -6 64
-32 150 4 164 68 11 50 -13 80 -100 124 -69 34 -80 44 -83 68 -5 39 14 57 59
57 44 0 79 -27 79 -60 0 -13 7 -20 20 -20 18 0 20 7 20 55 0 48 -2 55 -20 55
-11 0 -20 -4 -20 -9 0 -6 -16 -3 -35 5 -35 14 -59 16 -85 7z"/>
<path d="M19775 1681 c-55 -23 -76 -101 -39 -142 10 -11 51 -36 91 -54 70 -32
73 -35 73 -67 0 -45 -15 -58 -67 -58 -48 0 -83 28 -83 67 0 16 -6 23 -20 23
-18 0 -20 -7 -20 -60 0 -53 2 -60 20 -60 11 0 20 5 20 10 0 6 14 3 32 -6 63
-33 149 2 163 67 11 50 -13 80 -100 124 -69 34 -80 44 -83 68 -5 39 14 57 59
57 44 0 79 -27 79 -60 0 -13 7 -20 20 -20 18 0 20 7 20 55 0 48 -2 55 -20 55
-11 0 -20 -4 -20 -9 0 -6 -16 -3 -35 5 -38 16 -60 17 -90 5z"/>
<path d="M13520 1665 c0 -9 9 -15 25 -15 l25 0 0 -145 0 -145 -25 0 c-16 0
-25 -6 -25 -15 0 -13 21 -15 130 -15 l130 0 0 61 c0 52 -2 60 -17 57 -13 -2
-19 -15 -21 -46 l-3 -42 -65 0 -64 0 0 145 0 145 25 0 c16 0 25 6 25 15 0 12
-14 15 -70 15 -56 0 -70 -3 -70 -15z"/>
<path d="M14220 1665 c0 -9 9 -15 25 -15 l25 0 0 -145 0 -145 -25 0 c-16 0
-25 -6 -25 -15 0 -12 14 -15 70 -15 56 0 70 3 70 15 0 9 -9 15 -25 15 -25 0
-26 2 -23 58 3 54 5 57 30 60 24 3 31 -5 70 -72 41 -73 44 -75 81 -76 26 0 37
4 37 15 0 8 -8 15 -19 15 -17 0 -48 39 -80 98 -10 20 -9 23 14 34 29 13 55 55
55 88 0 33 -26 75 -55 88 -14 7 -70 12 -125 12 -82 0 -100 -3 -100 -15z m211
-33 c28 -23 30 -73 4 -102 -14 -15 -31 -20 -72 -20 l-53 0 0 70 0 70 49 0 c33
0 56 -6 72 -18z"/>
<path d="M14670 1666 c0 -9 9 -16 20 -16 11 0 20 -2 20 -5 0 -3 -23 -68 -51
-145 -41 -112 -55 -140 -70 -140 -11 0 -19 -7 -19 -15 0 -12 13 -15 60 -15 47
0 60 3 60 15 0 8 -9 15 -20 15 -23 0 -24 3 -8 47 l12 33 72 0 c72 0 72 0 83
-31 15 -44 14 -49 -9 -49 -11 0 -20 -7 -20 -15 0 -12 14 -15 65 -15 50 0 65 3
65 14 0 8 -9 16 -21 18 -17 2 -31 31 -78 158 l-56 155 -53 3 c-42 2 -52 0 -52
-12z m104 -100 c14 -41 26 -79 26 -85 0 -7 -22 -11 -55 -11 -30 0 -55 3 -55 7
0 11 51 163 55 163 1 0 14 -33 29 -74z"/>
<path d="M14970 1666 c0 -10 9 -16 25 -16 l25 0 0 -145 0 -145 -25 0 c-16 0
-25 -6 -25 -16 0 -14 16 -15 119 -12 l120 3 34 33 c59 57 73 147 35 222 -38
74 -62 84 -194 88 -99 3 -114 2 -114 -12z m220 -32 c42 -25 60 -64 60 -131 0
-97 -43 -142 -137 -143 l-53 0 0 145 0 145 51 0 c29 0 63 -7 79 -16z"/>
<path d="M16180 1635 c0 -33 4 -45 15 -45 10 0 15 10 15 30 0 29 2 30 45 30
l45 0 0 -145 0 -145 -25 0 c-16 0 -25 -6 -25 -15 0 -12 14 -15 70 -15 56 0 70
3 70 15 0 9 -9 15 -25 15 l-25 0 0 145 0 145 45 0 c43 0 45 -1 45 -30 0 -23 4
-30 20 -30 17 0 20 7 20 45 l0 45 -145 0 -145 0 0 -45z"/>
<path d="M16570 1665 c0 -8 9 -15 20 -15 11 0 20 -4 20 -9 0 -7 -60 -174 -92
-253 -6 -17 -18 -28 -29 -28 -11 0 -19 -7 -19 -15 0 -12 13 -15 60 -15 47 0
60 3 60 15 0 9 -9 15 -21 15 -15 0 -19 4 -15 16 3 9 9 27 12 40 6 23 10 24 79
24 l72 0 16 -40 c15 -40 15 -40 -9 -40 -15 0 -24 -6 -24 -15 0 -12 14 -15 65
-15 51 0 65 3 65 15 0 8 -9 15 -19 15 -16 0 -30 30 -78 160 l-58 160 -52 0
c-41 0 -53 -4 -53 -15z m115 -125 l24 -70 -60 0 c-32 0 -59 3 -59 7 0 4 12 42
27 85 31 86 31 86 68 -22z"/>
<path d="M16830 1635 c0 -38 3 -45 20 -45 16 0 20 7 20 30 0 29 2 30 45 30
l45 0 0 -145 0 -145 -25 0 c-16 0 -25 -6 -25 -15 0 -12 14 -15 70 -15 56 0 70
3 70 15 0 9 -9 15 -25 15 l-25 0 0 145 0 145 45 0 c43 0 45 -1 45 -30 0 -20 5
-30 15 -30 11 0 15 12 15 45 l0 45 -145 0 -145 0 0 -45z"/>
<path d="M17180 1665 c0 -8 9 -15 20 -15 19 0 20 -7 20 -145 0 -138 -1 -145
-20 -145 -11 0 -20 -7 -20 -15 0 -13 22 -15 135 -15 l135 0 0 55 c0 42 -3 55
-15 55 -11 0 -15 -11 -15 -40 l0 -40 -80 0 -80 0 0 65 0 65 45 0 c38 0 45 -3
45 -20 0 -11 7 -20 15 -20 12 0 15 13 15 60 0 47 -3 60 -15 60 -8 0 -15 -9
-15 -20 0 -17 -7 -20 -45 -20 l-45 0 0 60 0 60 75 0 75 0 0 -30 c0 -20 5 -30
15 -30 11 0 15 12 15 45 l0 45 -130 0 c-109 0 -130 -2 -130 -15z"/>
<path d="M17630 1665 c0 -8 9 -15 20 -15 19 0 20 -7 20 -102 0 -171 26 -218
122 -225 61 -5 112 20 128 63 6 14 10 79 10 145 l0 119 25 0 c16 0 25 6 25 15
0 12 -14 15 -65 15 -51 0 -65 -3 -65 -15 0 -8 9 -15 20 -15 19 0 20 -7 20
-124 0 -123 0 -125 -26 -145 -15 -12 -41 -21 -59 -21 -18 0 -44 9 -59 21 -26
20 -26 22 -26 145 0 117 1 124 20 124 11 0 20 7 20 15 0 12 -14 15 -65 15 -51
0 -65 -3 -65 -15z"/>
<path d="M18030 1665 c0 -9 9 -15 25 -15 l25 0 0 -145 0 -145 -25 0 c-16 0
-25 -6 -25 -15 0 -12 14 -15 65 -15 51 0 65 3 65 15 0 9 -9 15 -25 15 l-25 0
0 125 c0 69 3 125 8 125 4 -1 45 -62 93 -138 62 -100 91 -138 107 -140 22 -3
22 -3 22 157 l0 161 25 0 c16 0 25 6 25 15 0 12 -14 15 -65 15 -51 0 -65 -3
-65 -15 0 -9 9 -15 25 -15 l25 0 0 -125 c0 -69 -2 -125 -4 -125 -2 0 -43 63
-91 140 l-87 140 -49 0 c-37 0 -49 -4 -49 -15z"/>
<path d="M18440 1665 c0 -9 9 -15 25 -15 l25 0 0 -145 0 -145 -25 0 c-16 0
-25 -6 -25 -15 0 -12 14 -15 70 -15 56 0 70 3 70 15 0 9 -9 15 -25 15 l-25 0
0 145 0 145 25 0 c16 0 25 6 25 15 0 12 -14 15 -70 15 -56 0 -70 -3 -70 -15z"/>
<path d="M18620 1665 c0 -8 8 -15 19 -15 15 0 29 -29 74 -157 49 -144 57 -158
80 -161 23 -3 27 4 56 85 17 48 43 121 58 161 19 54 30 72 44 72 11 0 19 7 19
15 0 12 -13 15 -60 15 -47 0 -60 -3 -60 -15 0 -9 9 -15 21 -15 13 0 19 -5 17
-12 -3 -7 -22 -65 -43 -128 -21 -63 -41 -119 -45 -123 -4 -5 -28 52 -53 127
l-46 136 25 0 c15 0 24 6 24 15 0 12 -14 15 -65 15 -51 0 -65 -3 -65 -15z"/>
<path d="M19010 1665 c0 -9 9 -15 25 -15 l25 0 0 -145 0 -145 -25 0 c-16 0
-25 -6 -25 -15 0 -13 22 -15 140 -15 l140 0 0 55 c0 42 -3 55 -15 55 -11 0
-15 -11 -15 -40 l0 -40 -80 0 -80 0 0 65 0 65 40 0 c33 0 40 -3 40 -20 0 -13
7 -20 20 -20 18 0 20 7 20 60 0 53 -2 60 -20 60 -13 0 -20 -7 -20 -20 0 -17
-7 -20 -40 -20 l-40 0 0 60 0 60 75 0 75 0 0 -30 c0 -20 5 -30 15 -30 11 0 15
12 15 45 l0 45 -135 0 c-113 0 -135 -2 -135 -15z"/>
<path d="M19350 1666 c0 -10 9 -16 25 -16 l25 0 0 -145 0 -145 -25 0 c-16 0
-25 -6 -25 -15 0 -12 14 -15 70 -15 56 0 70 3 70 15 0 9 -9 15 -25 15 -24 0
-25 3 -25 60 0 59 0 60 28 60 25 0 34 -10 71 -75 42 -73 44 -75 82 -75 28 0
39 4 39 15 0 9 -9 15 -22 15 -17 0 -32 15 -57 56 l-33 56 36 30 c31 26 36 35
36 73 0 32 -7 52 -24 72 -23 27 -28 28 -135 31 -96 3 -111 2 -111 -12z m210
-36 c11 -11 20 -33 20 -50 0 -46 -31 -70 -90 -70 l-50 0 0 70 0 70 50 0 c37 0
55 -5 70 -20z"/>
<path d="M20000 1665 c0 -9 9 -15 25 -15 l25 0 0 -145 0 -145 -25 0 c-16 0
-25 -6 -25 -15 0 -12 14 -15 70 -15 56 0 70 3 70 15 0 9 -9 15 -25 15 l-25 0
0 145 0 145 25 0 c16 0 25 6 25 15 0 12 -14 15 -70 15 -56 0 -70 -3 -70 -15z"/>
<path d="M20190 1635 c0 -38 3 -45 20 -45 16 0 20 7 20 30 0 28 2 30 40 30
l40 0 0 -145 0 -145 -25 0 c-16 0 -25 -6 -25 -15 0 -12 14 -15 70 -15 56 0 70
3 70 15 0 8 -9 15 -20 15 -19 0 -20 7 -20 145 l0 145 40 0 c38 0 40 -2 40 -30
0 -23 4 -30 20 -30 17 0 20 7 20 45 l0 45 -145 0 -145 0 0 -45z"/>
<path d="M20520 1665 c0 -8 9 -15 19 -15 14 0 34 -25 70 -87 45 -78 51 -95 51
-145 0 -55 -1 -58 -25 -58 -16 0 -25 -6 -25 -15 0 -12 14 -15 70 -15 56 0 70
3 70 15 0 9 -9 15 -25 15 -23 0 -25 3 -25 53 0 45 7 65 52 141 28 49 59 91 70
94 10 2 18 11 18 18 0 10 -16 14 -60 14 -47 0 -60 -3 -60 -15 0 -8 9 -15 20
-15 11 0 20 -3 20 -6 0 -9 -72 -135 -75 -132 -6 5 -75 130 -75 134 0 2 9 4 20
4 11 0 20 7 20 15 0 12 -14 15 -65 15 -51 0 -65 -3 -65 -15z"/>
<path d="M4964 1639 c-98 -28 -113 -178 -22 -225 22 -11 48 -15 86 -12 47 4
60 10 84 37 23 25 28 41 28 80 0 57 -25 96 -76 117 -37 16 -55 16 -100 3z"/>
<path d="M3270 1535 l0 -85 60 0 60 0 0 -410 0 -409 -57 -3 -58 -3 0 -80 0
-80 165 0 165 0 3 53 3 53 37 -38 c140 -144 400 -101 509 85 84 142 84 382 0
524 -67 116 -207 179 -344 158 -66 -11 -108 -32 -160 -83 l-43 -41 0 222 0
222 -170 0 -170 0 0 -85z m615 -418 c23 -13 52 -42 69 -70 26 -42 30 -61 34
-138 5 -101 -8 -161 -45 -211 -65 -88 -186 -104 -262 -35 -47 43 -71 114 -71
208 0 133 35 210 114 249 54 26 111 25 161 -3z"/>
<path d="M4250 1535 l0 -85 60 0 60 0 0 -410 0 -410 -60 0 -60 0 0 -85 0 -85
233 2 232 3 0 80 0 80 -62 3 -63 3 0 494 0 495 -170 0 -170 0 0 -85z"/>
<path d="M6404 1607 c-3 -8 -4 -45 -2 -83 l3 -69 63 -3 62 -3 0 -409 0 -409
-62 -3 -63 -3 0 -80 0 -80 223 -3 222 -2 0 85 0 85 -50 0 -50 0 0 170 c0 185
5 205 59 263 37 40 73 57 123 57 56 0 87 -17 112 -60 19 -31 21 -55 25 -232
l3 -198 -56 0 -56 0 0 -85 0 -85 223 2 222 3 0 80 0 80 -57 3 -58 3 0 198 c0
208 -10 292 -41 352 -75 147 -310 166 -445 35 l-54 -52 -2 226 -3 225 -168 3
c-135 2 -168 0 -173 -11z"/>
<path d="M9220 1535 l0 -85 60 0 60 0 0 -410 0 -410 -60 0 -60 0 0 -85 0 -85
230 0 230 0 0 85 0 85 -60 0 -60 0 0 495 0 495 -170 0 -170 0 0 -85z"/>
<path d="M10290 1535 l0 -85 60 0 60 0 0 -410 0 -410 -60 0 -60 0 0 -85 0 -85
223 2 222 3 0 80 0 80 -52 3 -53 3 0 165 c0 156 1 167 25 214 15 29 43 63 67
80 83 60 193 31 218 -58 5 -20 10 -119 10 -219 l0 -182 -52 -3 -53 -3 0 -80 0
-80 223 -3 222 -2 0 85 0 85 -60 0 -60 0 0 219 c0 260 -12 320 -77 382 -48 46
-65 55 -133 67 -108 20 -205 -11 -282 -91 l-48 -48 0 230 0 231 -170 0 -170 0
0 -85z"/>
<path d="M9830 1491 l-55 -6 -3 -97 -3 -98 -59 0 -60 0 0 -80 0 -80 59 0 59 0
5 -252 c5 -282 11 -312 67 -368 42 -42 100 -61 184 -62 62 0 183 19 190 31 2
3 -1 38 -8 76 l-12 70 -71 -4 c-66 -3 -74 -1 -97 23 l-26 25 0 231 0 230 105
0 105 0 0 80 0 80 -105 0 -105 0 0 105 0 105 -57 -2 c-32 -1 -83 -4 -113 -7z"/>
<path d="M1799 1300 c-60 -10 -120 -42 -163 -86 l-36 -37 0 56 0 57 -170 0
-170 0 0 -80 0 -80 60 0 60 0 -2 -397 -3 -398 -57 -3 -58 -3 0 -79 0 -80 230
0 230 0 0 80 0 80 -60 0 -60 0 0 128 0 127 20 -31 c85 -132 321 -142 457 -19
140 125 176 382 82 582 -62 131 -211 207 -360 183z m71 -180 c73 -37 110 -118
110 -240 0 -120 -33 -191 -108 -237 -61 -37 -148 -28 -200 20 -84 78 -102 276
-34 386 50 82 150 113 232 71z"/>
<path d="M5590 1299 c-77 -15 -170 -69 -216 -126 -63 -77 -86 -147 -92 -275
-5 -124 15 -210 68 -290 95 -143 317 -200 518 -134 52 18 172 89 172 103 0 5
-17 36 -38 70 l-38 61 -54 -34 c-67 -42 -107 -54 -188 -54 -94 0 -155 37 -198
120 -22 43 -31 187 -15 246 39 147 196 209 306 123 32 -26 54 -68 63 -122 l7
-42 73 -3 72 -3 0 176 0 175 -75 0 -75 0 0 -39 0 -39 -30 28 c-52 49 -173 76
-260 59z"/>
<path d="M7790 1303 c-61 -7 -153 -42 -202 -78 -118 -87 -179 -265 -149 -441
32 -188 157 -311 337 -333 84 -10 207 3 274 28 56 21 136 66 145 81 6 10 -62
130 -74 130 -3 0 -36 -16 -73 -34 -152 -77 -310 -50 -368 64 -11 22 -20 55
-20 75 l0 35 281 0 282 0 -6 88 c-12 193 -85 307 -231 360 -54 20 -138 31
-196 25z m126 -164 c51 -24 82 -69 90 -133 l7 -46 -176 0 c-97 0 -178 3 -181
8 -7 12 29 110 50 133 26 30 92 59 133 59 19 0 54 -9 77 -21z"/>
<path d="M8583 1299 c-63 -7 -202 -46 -239 -67 -9 -5 -5 -26 18 -82 17 -41 32
-76 33 -78 1 -1 33 12 71 30 60 28 82 33 164 36 83 3 99 0 128 -18 35 -21 62
-72 62 -115 0 -23 -4 -25 -43 -25 -63 0 -205 -19 -258 -34 -162 -48 -239 -159
-210 -304 25 -126 114 -193 258 -194 81 0 151 24 207 73 l46 41 0 -51 0 -51
165 0 165 0 0 85 0 85 -54 0 -54 0 -4 223 c-5 251 -13 289 -76 352 -82 82
-209 113 -379 94z m237 -519 c0 -83 -14 -110 -74 -145 -69 -39 -145 -38 -187
4 -23 24 -29 38 -29 73 0 90 72 135 223 137 l67 1 0 -70z"/>
<path d="M2220 1210 l0 -80 54 0 54 0 4 -242 c3 -228 5 -246 26 -293 42 -91
92 -128 196 -145 101 -16 194 16 269 94 l47 49 0 -67 0 -66 168 2 167 3 0 80
0 80 -57 3 -58 3 0 329 0 330 -170 0 -170 0 0 -80 0 -80 55 0 55 0 0 -184 0
-184 -33 -44 c-34 -45 -104 -88 -144 -88 -42 0 -91 27 -110 62 -16 29 -18 65
-21 316 l-3 282 -165 0 -164 0 0 -80z"/>
<path d="M4780 1210 l0 -80 60 0 60 0 0 -250 0 -250 -60 0 -60 0 0 -85 0 -85
233 2 232 3 0 80 0 80 -62 3 -63 3 0 329 0 330 -170 0 -170 0 0 -80z"/>
<path d="M14905 821 c-56 -24 -78 -99 -40 -141 11 -12 52 -37 92 -55 70 -32
73 -35 73 -67 0 -45 -15 -58 -67 -58 -50 0 -83 26 -83 65 0 18 -5 25 -20 25
-18 0 -20 -7 -20 -60 0 -53 2 -60 20 -60 11 0 20 5 20 10 0 6 14 3 32 -6 63
-33 149 2 163 67 11 50 -13 80 -100 124 -69 34 -80 44 -83 68 -5 39 14 57 59
57 44 0 79 -27 79 -60 0 -13 7 -20 20 -20 18 0 20 7 20 55 0 48 -2 55 -20 55
-11 0 -20 -4 -20 -9 0 -6 -16 -3 -35 5 -38 16 -60 17 -90 5z"/>
<path d="M16245 815 c-145 -52 -143 -298 3 -346 115 -38 221 46 222 175 0 130
-110 213 -225 171z m133 -53 c62 -58 65 -166 7 -227 -28 -30 -39 -35 -77 -35
-75 0 -128 60 -128 145 0 84 53 145 125 145 33 0 50 -6 73 -28z"/>
<path d="M17455 815 c-48 -17 -93 -67 -101 -113 -10 -55 1 -140 22 -169 40
-53 71 -68 139 -68 74 0 107 19 142 81 46 80 20 210 -51 253 -44 28 -103 34
-151 16z m128 -45 c14 -11 33 -40 42 -65 39 -101 -16 -205 -108 -205 -53 0
-93 27 -113 76 -28 68 -10 152 41 192 36 29 103 30 138 2z"/>
<path d="M20150 808 c-106 -55 -124 -232 -31 -311 59 -49 147 -48 204 3 25 23
29 31 20 41 -10 10 -18 8 -38 -11 -16 -15 -40 -24 -74 -28 -47 -4 -53 -2 -85
30 -87 87 -38 258 73 258 45 0 86 -28 95 -65 4 -14 13 -25 21 -25 12 0 15 14
15 60 0 47 -3 60 -15 60 -8 0 -15 -9 -15 -20 l0 -21 -28 21 c-43 32 -90 35
-142 8z"/>
<path d="M20540 819 c-143 -42 -161 -278 -26 -340 102 -46 207 4 237 113 37
140 -79 265 -211 227z m114 -50 c37 -29 56 -71 56 -124 0 -92 -47 -145 -127
-145 -72 0 -114 54 -114 145 0 63 21 109 59 129 40 22 95 20 126 -5z"/>
<path d="M21235 815 c-145 -52 -143 -298 3 -346 115 -38 221 46 222 175 0 130
-110 213 -225 171z m133 -53 c62 -58 65 -166 7 -227 -28 -30 -39 -35 -77 -35
-75 0 -128 60 -128 145 0 84 53 145 125 145 33 0 50 -6 73 -28z"/>
<path d="M22765 815 c-138 -49 -154 -264 -25 -332 55 -29 104 -29 160 0 134
68 111 296 -35 336 -49 13 -51 13 -100 -4z m113 -39 c41 -22 62 -66 62 -129 0
-96 -41 -147 -120 -147 -77 0 -120 51 -120 140 0 63 20 109 58 132 32 21 88
22 120 4z"/>
<path d="M12760 805 c0 -8 9 -15 19 -15 17 0 19 -10 23 -127 2 -90 8 -135 18
-151 32 -48 122 -67 180 -37 50 26 60 60 60 195 l0 120 25 0 c16 0 25 6 25 15
0 12 -14 15 -65 15 -51 0 -65 -3 -65 -15 0 -8 9 -15 20 -15 19 0 20 -7 20
-124 0 -123 0 -125 -26 -145 -34 -27 -84 -27 -118 0 -26 20 -26 22 -26 145 0
117 1 124 20 124 11 0 20 7 20 15 0 12 -14 15 -65 15 -51 0 -65 -3 -65 -15z"/>
<path d="M13160 805 c0 -9 9 -15 25 -15 l25 0 0 -145 0 -145 -25 0 c-16 0 -25
-6 -25 -15 0 -12 14 -15 65 -15 51 0 65 3 65 15 0 9 -9 15 -25 15 l-25 0 0
133 1 132 54 -85 c31 -47 72 -113 93 -147 28 -47 43 -63 60 -63 22 0 22 1 22
160 0 153 1 160 20 160 11 0 20 7 20 15 0 12 -13 15 -60 15 -47 0 -60 -3 -60
-15 0 -8 9 -15 20 -15 19 0 20 -7 20 -122 l0 -123 -48 75 c-26 41 -65 103 -86
138 l-39 62 -48 0 c-37 0 -49 -4 -49 -15z"/>
<path d="M13570 805 c0 -8 9 -15 20 -15 19 0 20 -7 20 -145 0 -138 -1 -145
-20 -145 -11 0 -20 -7 -20 -15 0 -12 14 -15 65 -15 51 0 65 3 65 15 0 8 -9 15
-20 15 -19 0 -20 7 -20 145 0 138 1 145 20 145 11 0 20 7 20 15 0 12 -14 15
-65 15 -51 0 -65 -3 -65 -15z"/>
<path d="M13750 805 c0 -8 8 -15 18 -15 14 0 30 -33 74 -157 50 -143 58 -158
80 -161 23 -3 28 4 63 105 74 211 75 213 96 213 10 0 19 7 19 15 0 12 -13 15
-60 15 -47 0 -60 -3 -60 -15 0 -8 9 -15 20 -15 11 0 20 -2 20 -4 0 -7 -90
-260 -94 -264 -2 -2 -24 58 -49 132 l-46 136 25 0 c15 0 24 6 24 15 0 12 -14
15 -65 15 -51 0 -65 -3 -65 -15z"/>
<path d="M14140 805 c0 -9 9 -15 25 -15 l25 0 0 -145 0 -145 -25 0 c-16 0 -25
-6 -25 -15 0 -13 22 -15 140 -15 l140 0 0 55 c0 42 -3 55 -15 55 -11 0 -15
-11 -15 -40 l0 -40 -80 0 -80 0 0 65 0 65 40 0 c33 0 40 -3 40 -20 0 -13 7
-20 20 -20 18 0 20 7 20 60 0 53 -2 60 -20 60 -13 0 -20 -7 -20 -20 0 -17 -7
-20 -40 -20 l-40 0 0 60 0 60 75 0 75 0 0 -30 c0 -20 5 -30 15 -30 11 0 15 12
15 45 l0 45 -135 0 c-113 0 -135 -2 -135 -15z"/>
<path d="M14480 806 c0 -10 9 -16 25 -16 l25 0 0 -145 0 -145 -25 0 c-16 0
-25 -6 -25 -15 0 -12 14 -15 65 -15 51 0 65 3 65 15 0 8 -9 15 -20 15 -18 0
-20 7 -20 60 0 59 0 60 28 60 24 0 34 -10 71 -75 41 -73 43 -75 82 -75 28 0
39 4 39 15 0 9 -9 15 -23 15 -16 0 -31 14 -55 55 l-33 55 35 34 c30 28 36 40
36 74 0 29 -7 49 -24 69 -23 27 -28 28 -135 31 -96 3 -111 2 -111 -12z m210
-36 c11 -11 20 -33 20 -50 0 -46 -31 -70 -90 -70 l-50 0 0 70 0 70 50 0 c37 0
55 -5 70 -20z"/>
<path d="M15130 805 c0 -9 9 -15 25 -15 l25 0 0 -145 0 -145 -25 0 c-16 0 -25
-6 -25 -15 0 -12 14 -15 70 -15 56 0 70 3 70 15 0 9 -9 15 -25 15 l-25 0 0
145 0 145 25 0 c16 0 25 6 25 15 0 12 -14 15 -70 15 -56 0 -70 -3 -70 -15z"/>
<path d="M15320 775 c0 -33 4 -45 15 -45 10 0 15 10 15 30 0 29 2 30 45 30
l45 0 0 -145 0 -145 -25 0 c-16 0 -25 -6 -25 -15 0 -12 14 -15 70 -15 56 0 70
3 70 15 0 9 -9 15 -25 15 l-25 0 0 145 0 145 45 0 c43 0 45 -1 45 -30 0 -23 4
-30 20 -30 17 0 20 7 20 45 l0 45 -145 0 -145 0 0 -45z"/>
<path d="M15650 805 c0 -8 8 -15 19 -15 13 0 34 -27 70 -89 45 -78 51 -95 51
-145 0 -53 -1 -56 -25 -56 -16 0 -25 -6 -25 -15 0 -12 14 -15 70 -15 56 0 70
3 70 15 0 9 -9 15 -25 15 -24 0 -25 3 -25 54 0 48 6 65 52 142 29 48 60 89 70
92 10 2 18 11 18 18 0 10 -16 14 -60 14 -47 0 -60 -3 -60 -15 0 -8 9 -15 20
-15 11 0 20 -3 20 -6 0 -9 -72 -135 -75 -132 -7 8 -75 127 -75 132 0 3 9 6 20
6 11 0 20 7 20 15 0 12 -14 15 -65 15 -51 0 -65 -3 -65 -15z"/>
<path d="M16520 805 c0 -9 9 -15 25 -15 l25 0 0 -145 0 -145 -25 0 c-16 0 -25
-6 -25 -15 0 -12 14 -15 70 -15 56 0 70 3 70 15 0 9 -9 15 -25 15 -24 0 -25 2
-25 65 l0 65 40 0 c36 0 40 -2 40 -25 0 -16 6 -25 15 -25 12 0 15 14 15 65 0
51 -3 65 -15 65 -9 0 -15 -9 -15 -25 0 -22 -4 -25 -40 -25 l-40 0 0 65 0 65
70 0 70 0 0 -35 c0 -24 5 -35 15 -35 11 0 15 12 15 50 l0 50 -130 0 c-109 0
-130 -2 -130 -15z"/>
<path d="M16940 806 c0 -10 9 -16 25 -16 l25 0 0 -145 0 -145 -25 0 c-16 0
-25 -6 -25 -15 0 -12 14 -15 65 -15 51 0 65 3 65 15 0 8 -9 15 -20 15 -19 0
-20 7 -20 125 0 69 2 125 3 125 2 0 43 -63 92 -140 72 -116 91 -140 111 -140
l24 0 0 160 c0 153 1 160 20 160 11 0 20 7 20 15 0 12 -14 15 -65 15 -51 0
-65 -3 -65 -15 0 -9 9 -15 25 -15 l25 0 0 -122 c0 -82 -3 -119 -10 -112 -6 6
-45 66 -88 135 l-78 124 -52 3 c-42 2 -52 0 -52 -12z"/>
<path d="M17730 806 c0 -10 9 -16 25 -16 l25 0 0 -145 0 -145 -25 0 c-16 0
-25 -6 -25 -15 0 -12 14 -15 70 -15 56 0 70 3 70 15 0 9 -9 15 -25 15 -24 0
-25 3 -25 60 0 59 0 60 28 60 25 0 34 -10 71 -75 42 -73 44 -75 82 -75 28 0
39 4 39 15 0 9 -9 15 -22 15 -17 0 -32 15 -56 55 l-33 55 35 34 c30 28 36 40
36 74 0 29 -7 49 -24 69 -23 27 -28 28 -135 31 -96 3 -111 2 -111 -12z m210
-36 c11 -11 20 -33 20 -50 0 -46 -31 -70 -90 -70 l-50 0 0 70 0 70 50 0 c37 0
55 -5 70 -20z"/>
<path d="M18070 775 c0 -33 4 -45 15 -45 10 0 15 10 15 30 0 29 2 30 45 30
l45 0 0 -145 0 -145 -25 0 c-16 0 -25 -6 -25 -15 0 -12 14 -15 70 -15 56 0 70
3 70 15 0 9 -9 15 -25 15 l-25 0 0 145 0 145 45 0 c43 0 45 -1 45 -30 0 -23 4
-30 20 -30 17 0 20 7 20 45 l0 45 -145 0 -145 0 0 -45z"/>
<path d="M18410 805 c0 -9 9 -15 25 -15 l25 0 0 -145 0 -145 -25 0 c-16 0 -25
-6 -25 -15 0 -12 14 -15 70 -15 56 0 70 3 70 15 0 9 -9 15 -25 15 -24 0 -25 2
-25 70 l0 70 95 0 95 0 0 -70 c0 -68 -1 -70 -25 -70 -16 0 -25 -6 -25 -15 0
-12 14 -15 70 -15 56 0 70 3 70 15 0 9 -9 15 -25 15 l-25 0 0 145 0 145 25 0
c16 0 25 6 25 15 0 12 -14 15 -70 15 -56 0 -70 -3 -70 -15 0 -9 9 -15 25 -15
24 0 25 -3 25 -60 l0 -60 -95 0 -95 0 0 60 c0 57 1 60 25 60 16 0 25 6 25 15
0 12 -14 15 -70 15 -56 0 -70 -3 -70 -15z"/>
<path d="M18830 805 c0 -9 9 -15 25 -15 l25 0 0 -145 0 -145 -25 0 c-16 0 -25
-6 -25 -15 0 -13 22 -15 140 -15 l140 0 0 55 c0 48 -2 55 -20 55 -17 0 -20 -7
-20 -40 l0 -40 -75 0 -75 0 0 65 0 65 40 0 c33 0 40 -3 40 -20 0 -11 7 -20 15
-20 12 0 15 13 15 60 0 47 -3 60 -15 60 -8 0 -15 -9 -15 -20 0 -17 -7 -20 -40
-20 l-40 0 0 60 0 60 70 0 70 0 0 -30 c0 -23 4 -30 20 -30 17 0 20 7 20 45 l0
45 -135 0 c-113 0 -135 -2 -135 -15z"/>
<path d="M19170 806 c0 -10 9 -16 25 -16 l25 0 0 -145 0 -145 -25 0 c-16 0
-25 -6 -25 -15 0 -12 14 -15 65 -15 51 0 65 3 65 15 0 8 -9 15 -20 15 -18 0
-20 7 -20 60 0 59 1 60 28 60 23 0 33 -11 70 -75 43 -73 45 -75 83 -75 28 0
39 4 39 15 0 9 -9 15 -22 15 -17 0 -33 16 -60 60 l-38 61 24 9 c58 22 75 107
32 157 -23 27 -28 28 -135 31 -96 3 -111 2 -111 -12z m207 -38 c29 -27 30 -71
3 -98 -15 -15 -33 -20 -70 -20 l-50 0 0 70 0 70 47 0 c34 0 53 -6 70 -22z"/>
<path d="M19530 805 c0 -8 9 -15 20 -15 19 0 20 -7 20 -145 0 -138 -1 -145
-20 -145 -11 0 -20 -7 -20 -15 0 -12 13 -15 60 -15 47 0 60 3 60 15 0 8 -9 15
-20 15 -19 0 -20 7 -20 125 0 69 2 125 4 125 2 0 43 -63 92 -140 72 -115 92
-140 111 -140 l23 0 0 160 c0 153 1 160 20 160 11 0 20 7 20 15 0 12 -14 15
-65 15 -51 0 -65 -3 -65 -15 0 -9 9 -15 25 -15 l25 0 0 -127 0 -128 -87 142
-88 142 -47 1 c-36 0 -48 -4 -48 -15z"/>
<path d="M20810 805 c0 -8 9 -15 20 -15 19 0 20 -7 20 -145 0 -138 -1 -145
-20 -145 -11 0 -20 -7 -20 -15 0 -13 21 -15 125 -15 l125 0 0 60 c0 47 -3 60
-15 60 -11 0 -15 -12 -15 -45 l0 -45 -70 0 -70 0 0 145 0 145 30 0 c20 0 30 5
30 15 0 12 -14 15 -70 15 -56 0 -70 -3 -70 -15z"/>
<path d="M21510 806 c0 -10 9 -16 25 -16 l25 0 0 -145 0 -145 -25 0 c-16 0
-25 -6 -25 -15 0 -12 14 -15 65 -15 51 0 65 3 65 15 0 8 -9 15 -20 15 -18 0
-20 7 -20 60 0 59 0 60 28 60 25 0 34 -10 71 -75 42 -73 44 -75 82 -75 28 0
39 4 39 15 0 9 -9 15 -23 15 -16 0 -31 14 -55 55 l-33 55 35 34 c30 28 36 40
36 74 0 29 -7 49 -24 69 -23 27 -28 28 -135 31 -96 3 -111 2 -111 -12z m210
-36 c11 -11 20 -33 20 -50 0 -46 -31 -70 -90 -70 l-50 0 0 70 0 70 50 0 c37 0
55 -5 70 -20z"/>
<path d="M21950 806 c0 -8 11 -16 24 -18 l24 -3 -51 -139 c-36 -99 -56 -140
-69 -144 -10 -2 -18 -11 -18 -18 0 -10 16 -14 60 -14 47 0 60 3 60 15 0 9 -9
15 -24 15 -24 0 -25 1 -12 38 l13 37 72 3 72 3 14 -35 c19 -45 19 -46 -5 -46
-11 0 -20 -7 -20 -15 0 -12 13 -15 60 -15 47 0 60 3 60 15 0 8 -8 15 -17 15
-14 0 -31 37 -76 160 l-59 160 -54 0 c-40 0 -54 -4 -54 -14z m135 -175 c6 -20
3 -21 -54 -21 l-60 0 25 73 c13 39 27 79 30 87 5 13 26 -36 59 -139z"/>
<path d="M22260 806 c0 -9 8 -16 20 -16 19 0 20 -7 20 -145 0 -138 -1 -145
-20 -145 -11 0 -20 -7 -20 -15 0 -12 19 -15 109 -15 96 0 112 3 142 23 93 62
97 235 5 300 -27 19 -46 22 -143 25 -98 3 -113 2 -113 -12z m231 -42 c47 -41
64 -137 34 -194 -25 -49 -61 -70 -121 -70 l-54 0 0 146 0 146 60 -4 c40 -3 66
-11 81 -24z"/>
</g>
</svg>
